<svg xmlns="http://www.w3.org/2000/svg" width="164" height="186" viewBox="0 0 164 186"><defs><style>.a{fill:#fff;}.b{fill:#14a7dd;}.c{font-size:20px;font-family:UniviaPro-Bold, Univia Pro, sans-serif; font-weight:700;}</style></defs><g transform="translate(0 186) rotate(-90)"><rect class="a" width="162" height="164"/><path class="b" d="M1,1V163H161V1H1M0,0H162V164H0Z"/><text class="c" transform="translate(166 82) rotate(90)"><tspan x="-39.6" y="0">MPO-12</tspan></text><path d="M4,135.277H-4v-164H4Z" transform="translate(81.5 28.723)"/><rect width="162" height="31" transform="translate(0 67)"/><path class="a" d="M1,1V30H161V1H1M0,0H162V31H0Z" transform="translate(0 67)"/><g transform="translate(58 77)"><circle class="a" cx="5" cy="5" r="5"/><circle class="a" cx="5" cy="5" r="5" transform="translate(24)"/><circle class="a" cx="5" cy="5" r="5" transform="translate(12)"/><circle class="a" cx="5" cy="5" r="5" transform="translate(36)"/></g><g transform="translate(107 77)"><circle class="a" cx="5" cy="5" r="5"/><circle class="a" cx="5" cy="5" r="5" transform="translate(24)"/><circle class="a" cx="5" cy="5" r="5" transform="translate(12)"/><circle class="a" cx="5" cy="5" r="5" transform="translate(36)"/></g><g transform="translate(9 77)"><circle class="a" cx="5" cy="5" r="5"/><circle class="a" cx="5" cy="5" r="5" transform="translate(24)"/><circle class="a" cx="5" cy="5" r="5" transform="translate(12)"/><circle class="a" cx="5" cy="5" r="5" transform="translate(36)"/></g></g></svg>