<svg xmlns="http://www.w3.org/2000/svg" width="164" height="162" viewBox="0 0 164 162"><g transform="translate(0.088 162) rotate(-90)"><rect width="162" height="164" transform="translate(0 -0.088)" fill="#fff"/><path d="M1,1V163H161V1H1M0,0H162V164H0Z" transform="translate(0 -0.088)" fill="#14a7dd"/><rect width="161" height="31" transform="translate(1 0.789)"/><rect width="161" height="31" transform="translate(1 131.789)"/><rect width="36" height="36" transform="translate(4 2.789)" fill="#fff"/><path d="M1,1V35H35V1H1M0,0H36V36H0Z" transform="translate(4 2.789)" fill="#707070"/><rect width="37" height="36" transform="translate(114 124.789)" fill="#fff"/><path d="M1,1V35H36V1H1M0,0H37V36H0Z" transform="translate(114 124.789)" fill="#707070"/><rect width="37" height="36" transform="translate(121 2.789)" fill="#fff"/><path d="M1,1V35H36V1H1M0,0H37V36H0Z" transform="translate(121 2.789)" fill="#707070"/><rect width="37" height="36" transform="translate(67.5 125)" fill="#fff"/><path d="M1,1V35H36V1H1M0,0H37V36H0Z" transform="translate(67.5 125)" fill="#707070"/><rect width="37" height="36" transform="translate(81.5 3)" fill="#fff"/><path d="M1,1V35H36V1H1M0,0H37V36H0Z" transform="translate(81.5 3)" fill="#707070"/><rect width="37" height="36" transform="translate(20.502 125)" fill="#fff"/><path d="M1,1V35H36V1H1M0,0H37V36H0Z" transform="translate(20.502 125)" fill="#707070"/><rect width="37" height="36" transform="translate(42.5 3)" fill="#fff"/><path d="M1,1V35H36V1H1M0,0H37V36H0Z" transform="translate(42.5 3)" fill="#707070"/><text transform="translate(99 49.912) rotate(90)" font-size="16" font-family="UniviaPro-Bold, Univia Pro, sans-serif" font-weight="700"><tspan x="0" y="0">4x3 CM</tspan><tspan x="0" y="20">MPO-12</tspan><tspan x="0" y="40">to </tspan><tspan x="0" y="60">MPO-16</tspan></text><text transform="translate(17 12.58) rotate(90)" font-size="13" font-family="UniviaPro-Bold, Univia Pro, sans-serif" font-weight="700"><tspan x="0" y="0">12</tspan></text><text transform="translate(127 134.522) rotate(90)" font-size="13" font-family="UniviaPro-Bold, Univia Pro, sans-serif" font-weight="700"><tspan x="0" y="0">16</tspan></text><text transform="translate(134 12.58) rotate(90)" font-size="13" font-family="UniviaPro-Bold, Univia Pro, sans-serif" font-weight="700"><tspan x="0" y="0">12</tspan></text><text transform="translate(80.5 134.733) rotate(90)" font-size="13" font-family="UniviaPro-Bold, Univia Pro, sans-serif" font-weight="700"><tspan x="0" y="0">16</tspan></text><text transform="translate(94.5 12.791) rotate(90)" font-size="13" font-family="UniviaPro-Bold, Univia Pro, sans-serif" font-weight="700"><tspan x="0" y="0">12</tspan></text><text transform="translate(33.502 134.733) rotate(90)" font-size="13" font-family="UniviaPro-Bold, Univia Pro, sans-serif" font-weight="700"><tspan x="0" y="0">16</tspan></text><text transform="translate(55.5 12.791) rotate(90)" font-size="13" font-family="UniviaPro-Bold, Univia Pro, sans-serif" font-weight="700"><tspan x="0" y="0">12</tspan></text></g></svg>