<svg xmlns="http://www.w3.org/2000/svg" width="164.377" height="188" viewBox="0 0 164.377 188"><defs><style>.a{fill:#fff;}.b{fill:#0039c1;}.c{font-size:20px;font-family:UniviaPro-Bold, Univia Pro, sans-serif; font-weight:700;}</style></defs><g transform="translate(0.377 188) rotate(-90)"><rect class="a" width="162" height="164"/><path class="b" d="M1,1V163H161V1H1M0,0H162V164H0Z"/><path d="M4,164H-4V0H4Z" transform="translate(81.163 -0.377)"/><text class="c" transform="translate(168 77) rotate(90)"><tspan x="-39.69" y="0">MPO-16</tspan></text><g transform="translate(-3 67)"><rect width="162" height="31" transform="translate(3 0.4)"/><path class="a" d="M1,1V30H161V1H1M0,0H162V31H0Z" transform="translate(3 0.4)"/><g transform="translate(6.978 11.4)"><g transform="translate(78.513)"><circle class="a" cx="3.859" cy="3.859" r="3.859"/><circle class="a" cx="3.859" cy="3.859" r="3.859" transform="translate(18.523)"/><circle class="a" cx="3.859" cy="3.859" r="3.859" transform="translate(9.262)"/><circle class="a" cx="3.859" cy="3.859" r="3.859" transform="translate(28.557)"/></g><g transform="translate(117.77)"><circle class="a" cx="3.859" cy="3.859" r="3.859"/><circle class="a" cx="3.859" cy="3.859" r="3.859" transform="translate(18.523)"/><circle class="a" cx="3.859" cy="3.859" r="3.859" transform="translate(9.262)"/><circle class="a" cx="3.859" cy="3.859" r="3.859" transform="translate(28.557)"/></g><circle class="a" cx="3.859" cy="3.859" r="3.859"/><circle class="a" cx="3.859" cy="3.859" r="3.859" transform="translate(18.523)"/><circle class="a" cx="3.859" cy="3.859" r="3.859" transform="translate(9.262)"/><circle class="a" cx="3.859" cy="3.859" r="3.859" transform="translate(28.557)"/><g transform="translate(39.257)"><circle class="a" cx="3.859" cy="3.859" r="3.859"/><circle class="a" cx="3.859" cy="3.859" r="3.859" transform="translate(18.523)"/><circle class="a" cx="3.859" cy="3.859" r="3.859" transform="translate(9.262)"/><circle class="a" cx="3.859" cy="3.859" r="3.859" transform="translate(28.557)"/></g></g></g></g></svg>