<svg xmlns="http://www.w3.org/2000/svg" width="164" height="162" viewBox="0 0 164 162"><g transform="translate(164) rotate(90)"><rect width="162" height="164" fill="#fff"/><path d="M1,1V163H161V1H1M0,0H162V164H0Z" fill="#78be21"/><text transform="translate(76 121.6) rotate(-90)" font-size="20" font-family="UniviaPro-Bold, Univia Pro, sans-serif" font-weight="700"><tspan x="0" y="0">MPO-12</tspan></text><text transform="translate(102 94.1) rotate(-90)" font-size="20" font-family="UniviaPro-Bold, Univia Pro, sans-serif" font-weight="700"><tspan x="0" y="0">LC</tspan></text><rect width="160" height="31" transform="translate(1 1)"/><rect width="160" height="32" transform="translate(1 132)" fill="#78be21"/><g transform="translate(71.001 144)"><circle cx="5" cy="5" r="5" fill="#fff"/><circle cx="5" cy="5" r="5" transform="translate(13)" fill="#fff"/></g><g transform="translate(11 12)"><circle cx="5" cy="5" r="5" fill="#fff"/><circle cx="5" cy="5" r="5" transform="translate(24)" fill="#fff"/><circle cx="5" cy="5" r="5" transform="translate(12)" fill="#fff"/><circle cx="5" cy="5" r="5" transform="translate(36)" fill="#fff"/></g><g transform="translate(60 12)"><circle cx="5" cy="5" r="5" fill="#fff"/><circle cx="5" cy="5" r="5" transform="translate(24)" fill="#fff"/><circle cx="5" cy="5" r="5" transform="translate(12)" fill="#fff"/><circle cx="5" cy="5" r="5" transform="translate(36)" fill="#fff"/></g><g transform="translate(109 12)"><circle cx="5" cy="5" r="5" fill="#fff"/><circle cx="5" cy="5" r="5" transform="translate(24)" fill="#fff"/><circle cx="5" cy="5" r="5" transform="translate(12)" fill="#fff"/><circle cx="5" cy="5" r="5" transform="translate(36)" fill="#fff"/></g></g></svg>