<svg xmlns="http://www.w3.org/2000/svg" width="164" height="162" viewBox="0 0 164 162"><defs><style>.a{fill:#fff;}.b{fill:#78be21;}.c{font-size:20px;font-family:UniviaPro-Bold, Univia Pro, sans-serif; font-weight:700;}</style></defs><g transform="translate(164) rotate(90)"><rect class="a" width="162" height="164"/><path class="b" d="M1,1V163H161V1H1M0,0H162V164H0Z"/><text class="c" transform="translate(76 82) rotate(-90)"><tspan x="-39.69" y="0">MPO-16</tspan><tspan x="-12.1" y="26">LC</tspan></text><rect width="160" height="31" transform="translate(1 1.385)"/><rect class="b" width="160" height="32" transform="translate(1 132)"/><circle class="a" cx="5" cy="5" r="5" transform="translate(70 144)"/><circle class="a" cx="5" cy="5" r="5" transform="translate(83 144)"/><g transform="translate(36.978 7.385)"><g transform="translate(44.18 5)"><circle class="a" cx="3.859" cy="3.859" r="3.859"/><circle class="a" cx="3.859" cy="3.859" r="3.859" transform="translate(18.523)"/><circle class="a" cx="3.859" cy="3.859" r="3.859" transform="translate(9.262)"/><circle class="a" cx="3.859" cy="3.859" r="3.859" transform="translate(28.557)"/></g><g transform="translate(82.77 5)"><circle class="a" cx="3.859" cy="3.859" r="3.859"/><circle class="a" cx="3.859" cy="3.859" r="3.859" transform="translate(18.523)"/><circle class="a" cx="3.859" cy="3.859" r="3.859" transform="translate(9.262)"/><circle class="a" cx="3.859" cy="3.859" r="3.859" transform="translate(28.557)"/></g><g transform="translate(-33 5)"><circle class="a" cx="3.859" cy="3.859" r="3.859"/><circle class="a" cx="3.859" cy="3.859" r="3.859" transform="translate(18.523)"/><circle class="a" cx="3.859" cy="3.859" r="3.859" transform="translate(9.262)"/><circle class="a" cx="3.859" cy="3.859" r="3.859" transform="translate(28.557)"/></g><g transform="translate(5.59 5)"><circle class="a" cx="3.859" cy="3.859" r="3.859"/><circle class="a" cx="3.859" cy="3.859" r="3.859" transform="translate(18.523)"/><circle class="a" cx="3.859" cy="3.859" r="3.859" transform="translate(9.262)"/><circle class="a" cx="3.859" cy="3.859" r="3.859" transform="translate(28.557)"/></g></g></g></svg>