<svg xmlns="http://www.w3.org/2000/svg" width="164" height="162" viewBox="0 0 164 162"><defs><style>.a{fill:#fff;}.b{fill:#78be21;}.c{font-size:20px;font-family:UniviaPro-Bold, Univia Pro, sans-serif; font-weight:700;}.d{fill:#f70800;}</style></defs><g transform="translate(0 162) rotate(-90)"><rect class="a" width="162" height="164"/><path class="b" d="M1,1V163H161V1H1M0,0H162V164H0Z"/><text class="c" transform="translate(86 82) rotate(90)"><tspan x="-41.53" y="0">MPO-24</tspan><tspan x="-12.1" y="26">LC</tspan></text><rect class="d" width="160" height="31" transform="translate(1 1)"/><rect class="b" width="160" height="32" transform="translate(1 132)"/><g transform="translate(70 144)"><circle class="a" cx="5" cy="5" r="5"/><circle class="a" cx="5" cy="5" r="5" transform="translate(13)"/></g><g transform="translate(9 5)"><circle class="a" cx="5" cy="5" r="5"/><circle class="a" cx="5" cy="5" r="5" transform="translate(24)"/><circle class="a" cx="5" cy="5" r="5" transform="translate(12)"/><circle class="a" cx="5" cy="5" r="5" transform="translate(36)"/></g><g transform="translate(9 17)"><circle class="a" cx="5" cy="5" r="5"/><circle class="a" cx="5" cy="5" r="5" transform="translate(24)"/><circle class="a" cx="5" cy="5" r="5" transform="translate(12)"/><circle class="a" cx="5" cy="5" r="5" transform="translate(36)"/></g><g transform="translate(107 5)"><circle class="a" cx="5" cy="5" r="5"/><circle class="a" cx="5" cy="5" r="5" transform="translate(24)"/><circle class="a" cx="5" cy="5" r="5" transform="translate(12)"/><circle class="a" cx="5" cy="5" r="5" transform="translate(36)"/></g><g transform="translate(58 5)"><circle class="a" cx="5" cy="5" r="5"/><circle class="a" cx="5" cy="5" r="5" transform="translate(24)"/><circle class="a" cx="5" cy="5" r="5" transform="translate(12)"/><circle class="a" cx="5" cy="5" r="5" transform="translate(36)"/></g><g transform="translate(107 17)"><circle class="a" cx="5" cy="5" r="5"/><circle class="a" cx="5" cy="5" r="5" transform="translate(24)"/><circle class="a" cx="5" cy="5" r="5" transform="translate(12)"/><circle class="a" cx="5" cy="5" r="5" transform="translate(36)"/></g><g transform="translate(58 17)"><circle class="a" cx="5" cy="5" r="5"/><circle class="a" cx="5" cy="5" r="5" transform="translate(24)"/><circle class="a" cx="5" cy="5" r="5" transform="translate(12)"/><circle class="a" cx="5" cy="5" r="5" transform="translate(36)"/></g></g></svg>