<svg xmlns="http://www.w3.org/2000/svg" width="164.377" height="189" viewBox="0 0 164.377 189"><defs><style>.a{fill:#fff;}.b{fill:#f70800;}.c{font-size:20px;font-family:UniviaPro-Bold, Univia Pro, sans-serif; font-weight:700;}</style></defs><g transform="translate(0.377 189) rotate(-90)"><rect class="a" width="162" height="164"/><path class="b" d="M1,1V163H161V1H1M0,0H162V164H0Z"/><path d="M4,164H-4V0H4Z" transform="translate(81.5 -0.377)"/><text class="c" transform="translate(169 81) rotate(90)"><tspan x="-41.53" y="0">MPO-24</tspan></text><rect class="b" width="160" height="31" transform="translate(1 67)"/><path class="a" d="M1,1V30H159V1H1M0,0H160V31H0Z" transform="translate(1 67)"/><g transform="translate(109 71)"><circle class="a" cx="5" cy="5" r="5"/><circle class="a" cx="5" cy="5" r="5" transform="translate(24)"/><circle class="a" cx="5" cy="5" r="5" transform="translate(12)"/><circle class="a" cx="5" cy="5" r="5" transform="translate(36)"/></g><g transform="translate(109 84)"><circle class="a" cx="5" cy="5" r="5"/><circle class="a" cx="5" cy="5" r="5" transform="translate(24)"/><circle class="a" cx="5" cy="5" r="5" transform="translate(12)"/><circle class="a" cx="5" cy="5" r="5" transform="translate(36)"/></g><g transform="translate(9 71)"><circle class="a" cx="5" cy="5" r="5"/><circle class="a" cx="5" cy="5" r="5" transform="translate(24)"/><circle class="a" cx="5" cy="5" r="5" transform="translate(12)"/><circle class="a" cx="5" cy="5" r="5" transform="translate(36)"/></g><g transform="translate(9 84)"><circle class="a" cx="4.5" cy="4.5" r="4.5"/><circle class="a" cx="4.5" cy="4.5" r="4.5" transform="translate(24)"/><circle class="a" cx="4.5" cy="4.5" r="4.5" transform="translate(12)"/><circle class="a" cx="4.5" cy="4.5" r="4.5" transform="translate(36)"/></g><g transform="translate(59 71)"><circle class="a" cx="5" cy="5" r="5"/><circle class="a" cx="5" cy="5" r="5" transform="translate(25)"/><circle class="a" cx="5" cy="5" r="5" transform="translate(12)"/><circle class="a" cx="5" cy="5" r="5" transform="translate(37)"/></g><g transform="translate(59 84)"><circle class="a" cx="5" cy="5" r="5"/><circle class="a" cx="5" cy="5" r="5" transform="translate(25)"/><circle class="a" cx="5" cy="5" r="5" transform="translate(12)"/><circle class="a" cx="5" cy="5" r="5" transform="translate(37)"/></g></g></svg>