<svg xmlns="http://www.w3.org/2000/svg" width="164" height="162" viewBox="0 0 164 162"><g transform="translate(163.912) rotate(90)"><rect width="162" height="164" transform="translate(0 -0.088)" fill="#fff"/><path d="M1,1V163H161V1H1M0,0H162V164H0Z" transform="translate(0 -0.088)" fill="#14a7dd"/><text transform="translate(47.501 114.912) rotate(-90)" font-size="16" font-family="UniviaPro-Bold, Univia Pro, sans-serif" font-weight="700"><tspan x="0" y="0" xml:space="preserve">1x3  CM</tspan><tspan x="0" y="20">MPO-8</tspan><tspan x="0" y="40">to</tspan><tspan x="0" y="60">MPO-24</tspan></text><rect width="161" height="31" transform="translate(1 0.789)" fill="red"/><rect width="161" height="31" transform="translate(1 131.789)" fill="#bfbfbf"/><rect width="36" height="36" transform="translate(9.001 123.789)" fill="#fff"/><path d="M1,1V35H35V1H1M0,0H36V36H0Z" transform="translate(9.001 123.789)" fill="#707070"/><rect width="36" height="36" transform="translate(63 123.789)" fill="#fff"/><path d="M1,1V35H35V1H1M0,0H36V36H0Z" transform="translate(63 123.789)" fill="#707070"/><rect width="36" height="36" transform="translate(63 2.789)" fill="#fff"/><path d="M1,1V35H35V1H1M0,0H36V36H0Z" transform="translate(63 2.789)" fill="#707070"/><rect width="37" height="36" transform="translate(114.001 123.789)" fill="#fff"/><path d="M1,1V35H36V1H1M0,0H37V36H0Z" transform="translate(114.001 123.789)" fill="#707070"/><text transform="translate(137.001 145.092) rotate(-90)" font-size="13" font-family="UniviaPro-Bold, Univia Pro, sans-serif" font-weight="700"><tspan x="0" y="0">8</tspan></text><text transform="translate(83.002 145.092) rotate(-90)" font-size="13" font-family="UniviaPro-Bold, Univia Pro, sans-serif" font-weight="700"><tspan x="0" y="0">8</tspan></text><text transform="translate(32.001 145.092) rotate(-90)" font-size="13" font-family="UniviaPro-Bold, Univia Pro, sans-serif" font-weight="700"><tspan x="0" y="0">8</tspan></text><text transform="translate(86 29.252) rotate(-90)" font-size="13" font-family="UniviaPro-Bold, Univia Pro, sans-serif" font-weight="700"><tspan x="0" y="0">24</tspan></text></g></svg>