<svg xmlns="http://www.w3.org/2000/svg" width="164" height="162" viewBox="0 0 164 162"><g transform="translate(163.912) rotate(90)"><rect width="162" height="164" transform="translate(0 -0.088)" fill="#fff"/><path d="M1,1V163H161V1H1M0,0H162V164H0Z" transform="translate(0 -0.088)" fill="#14a7dd"/><text transform="translate(48 116.912) rotate(-90)" font-size="16" font-family="UniviaPro-Bold, Univia Pro, sans-serif" font-weight="700"><tspan x="0" y="0">2x3 CM</tspan><tspan x="0" y="20">MPO-16 </tspan><tspan x="0" y="40">to </tspan><tspan x="0" y="60">MPO-24</tspan></text><rect width="161" height="31" transform="translate(1 0.789)" fill="red"/><rect width="161" height="31" transform="translate(1 131.789)"/><rect width="36" height="36" transform="translate(14 124.789)" fill="#fff"/><path d="M1,1V35H35V1H1M0,0H36V36H0Z" transform="translate(14 124.789)" fill="#707070"/><rect width="36" height="36" transform="translate(63 124.789)" fill="#fff"/><path d="M1,1V35H35V1H1M0,0H36V36H0Z" transform="translate(63 124.789)" fill="#707070"/><rect width="36" height="36" transform="translate(32 2.789)" fill="#fff"/><path d="M1,1V35H35V1H1M0,0H36V36H0Z" transform="translate(32 2.789)" fill="#707070"/><rect width="36" height="36" transform="translate(82 2.789)" fill="#fff"/><path d="M1,1V35H35V1H1M0,0H36V36H0Z" transform="translate(82 2.789)" fill="#707070"/><rect width="37" height="36" transform="translate(111 124.789)" fill="#fff"/><path d="M1,1V35H36V1H1M0,0H37V36H0Z" transform="translate(111 124.789)" fill="#707070"/><text transform="translate(134 149.056) rotate(-90)" font-size="13" font-family="UniviaPro-Bold, Univia Pro, sans-serif" font-weight="700"><tspan x="0" y="0">16</tspan></text><text transform="translate(85 149.056) rotate(-90)" font-size="13" font-family="UniviaPro-Bold, Univia Pro, sans-serif" font-weight="700"><tspan x="0" y="0">16</tspan></text><text transform="translate(37 149.056) rotate(-90)" font-size="13" font-family="UniviaPro-Bold, Univia Pro, sans-serif" font-weight="700"><tspan x="0" y="0">16</tspan></text><text transform="translate(104 29.252) rotate(-90)" font-size="13" font-family="UniviaPro-Bold, Univia Pro, sans-serif" font-weight="700"><tspan x="0" y="0">24</tspan></text><text transform="translate(55 29.252) rotate(-90)" font-size="13" font-family="UniviaPro-Bold, Univia Pro, sans-serif" font-weight="700"><tspan x="0" y="0">24</tspan></text></g></svg>