<svg xmlns="http://www.w3.org/2000/svg" width="164" height="162" viewBox="0 0 164 162"><defs><style>.a,.e{fill:#fff;}.a{stroke:#78be21;}.b{font-size:20px;font-family: UniviaPro-Bold, Univia Pro, sans-serif;font-weight:700;}.c{fill:#bfbfbf;}.d{fill:#78be21;}.f{stroke:none;}.g{fill:none;}</style></defs><g transform="translate(0 162) rotate(-90)"><g class="a"><rect class="f" width="162" height="164"/><rect class="g" x="0.5" y="0.5" width="161" height="163"/></g><text class="b" transform="translate(86 82) rotate(90)"><tspan x="-35.13" y="0">MPO-8</tspan><tspan x="-12.1" y="26">LC</tspan></text><rect class="c" width="160" height="31" transform="translate(1 1)"/><rect class="d" width="160" height="31" transform="translate(1 132)"/><circle class="e" cx="5" cy="5" r="5" transform="translate(70 144)"/><circle class="e" cx="5" cy="5" r="5" transform="translate(82 144)"/><g transform="translate(8 12)"><circle class="e" cx="5" cy="5" r="5"/><circle class="e" cx="5" cy="5" r="5" transform="translate(24)"/><circle class="e" cx="5" cy="5" r="5" transform="translate(12)"/><circle class="e" cx="5" cy="5" r="5" transform="translate(36)"/></g><g transform="translate(109 12)"><circle class="e" cx="5" cy="5" r="5"/><circle class="e" cx="5" cy="5" r="5" transform="translate(24)"/><circle class="e" cx="5" cy="5" r="5" transform="translate(12)"/><circle class="e" cx="5" cy="5" r="5" transform="translate(36)"/></g></g></svg>