<svg xmlns="http://www.w3.org/2000/svg" width="164" height="186.5" viewBox="0 0 164 186.5"><defs><style>.a,.d{fill:#fff;}.a{stroke:#eac50c;}.b,.g{fill:none;}.b{stroke:#000;stroke-width:8px;}.c{fill:#bfbfbf;stroke:#fff;}.e{font-size:20px;font-family: UniviaPro-Bold, Univia Pro, sans-serif;font-weight:700;}.f{stroke:none;}</style></defs><g transform="translate(0 186.5) rotate(-90)"><g class="a"><rect class="f" width="162" height="164"/><rect class="g" x="0.5" y="0.5" width="161" height="163"/></g><path class="b" d="M0,136.451v-164" transform="translate(81.5 27.549)"/><g class="c" transform="translate(1 66)"><rect class="f" width="160" height="31"/><rect class="g" x="0.5" y="0.5" width="159" height="30"/></g><g transform="translate(109 76)"><circle class="d" cx="5" cy="5" r="5"/><circle class="d" cx="5" cy="5" r="5" transform="translate(24)"/><circle class="d" cx="5" cy="5" r="5" transform="translate(12)"/><circle class="d" cx="5" cy="5" r="5" transform="translate(36)"/></g><g transform="translate(6 76)"><circle class="d" cx="5" cy="5" r="5"/><circle class="d" cx="5" cy="5" r="5" transform="translate(24)"/><circle class="d" cx="5" cy="5" r="5" transform="translate(12)"/><circle class="d" cx="5" cy="5" r="5" transform="translate(36)"/></g><text class="e" transform="translate(166.5 81) rotate(90)"><tspan x="-35.13" y="0">MPO-8</tspan></text></g></svg>