<svg xmlns="http://www.w3.org/2000/svg" width="110.888" height="165.677" viewBox="0 0 110.888 165.677"><g transform="translate(-1681 -2222.876)"><g transform="translate(1735.717 2264.252)"><path d="M.261,26.208c.7-1.419,4.02-5.423,6.131-4.986s3.124.855,3.7,4.283,1.981,4.671,3.757,5.216a3.9,3.9,0,0,0,1.314.141L16.462,0h4.1l1.262,29.836a50.118,50.118,0,0,1,5.124-.39,82.763,82.763,0,0,1,10.083,1.032c5.033.861,7.794-.177,8.815-3.171s.086-8.367,1-7.435l7.382,2.5s.744-.445.611,1.619c-.274,4.236,1.215,21,1.317,21.928s-.385,29.136-.385,29.136-1.577,22.932-1.657,23.878-2.377,18.4-2.377,18.4-.631,4.3-3.47,5.3-16.9,1.724-17.863,1.663-14.731-.349-18.677-1.339-5.946-2.089-6.748-6.984S.488,61.636.488,61.636-.439,27.63.259,26.211Z" transform="translate(0.001)"/><path d="M70.608,169.01H37.328a1.7,1.7,0,0,0-1.7,1.7v21.836a1.7,1.7,0,0,0,1.7,1.7H70.176a1.7,1.7,0,0,0,1.7-1.666l.432-21.836A1.7,1.7,0,0,0,70.608,169.01Z" transform="translate(-25.882 -122.247)" fill="#f2f2f2"/><path d="M68.164,345.99a82.132,82.132,0,0,1-38.554,0" transform="translate(-20.074 -251.258)" fill="none" stroke="#fff" stroke-miterlimit="10" stroke-width="1"/><path d="M49.343,279.15l.011.008.014-.008,1.193,1.193v1.8h-.808v-1.09h-.794v1.09H48.15v-1.8Z" transform="translate(-7.6 -203.282)" fill="#fff"/><path d="M68.044,289.79a138.479,138.479,0,0,1-38.554,0" transform="translate(-19.921 -209.608)" fill="none" stroke="#fff" stroke-miterlimit="10" stroke-width="1"/><ellipse cx="2.153" cy="2.153" rx="2.153" ry="2.153" transform="translate(41.693 99.868)" stroke="#fff" stroke-miterlimit="10" stroke-width="1"/><ellipse cx="2.153" cy="2.153" rx="2.153" ry="2.153" transform="translate(11.334 99.868)" stroke="#fff" stroke-miterlimit="10" stroke-width="1"/><path d="M68.044,375.79a82.134,82.134,0,0,1-38.554,0" transform="translate(-19.921 -266.813)" fill="none" stroke="#fff" stroke-miterlimit="10" stroke-width="1"/><rect width="0.274" height="3.683" transform="translate(35.155 74.868)" fill="#fff"/><rect width="0.274" height="3.683" transform="translate(21.921 74.868)" fill="#fff"/><rect width="0.301" height="2.734" transform="translate(27.3 76.169) rotate(-90)" fill="#fff"/><rect width="0.301" height="2.734" transform="translate(27.3 76.803) rotate(-90)" fill="#fff"/><rect width="0.301" height="2.734" transform="translate(27.3 77.436) rotate(-90)" fill="#fff"/><rect width="0.301" height="2.734" transform="translate(27.3 78.07) rotate(-90)" fill="#fff"/><rect width="2.438" height="2.438" rx="1.14" transform="translate(13.971 75.868)" fill="#fff"/><circle cx="11.707" cy="11.707" r="11.707" transform="translate(28.813 112.48) rotate(-135)" stroke="#fff" stroke-miterlimit="10" stroke-width="1"/><ellipse cx="4.161" cy="4.161" rx="4.161" ry="4.161" transform="translate(24.652 92.368)" stroke="#fff" stroke-miterlimit="10" stroke-width="1"/><ellipse cx="2.153" cy="2.153" rx="2.153" ry="2.153" transform="translate(41.693 86.868)" stroke="#fff" stroke-miterlimit="10" stroke-width="1"/><ellipse cx="2.153" cy="2.153" rx="2.153" ry="2.153" transform="translate(11.334 86.868)" stroke="#fff" stroke-miterlimit="10" stroke-width="1"/></g><path d="M-11348-1031.883v-18s.609-16.239-13.957-16.239c-11.008,0-12.782,13.225-12.782,16.239v83.062h-45.974" transform="translate(13101.717 3291)" fill="none" stroke="#707070" stroke-width="4" stroke-dasharray="4"/></g></svg>